<?xml version="1.0" encoding="UTF-8"?>
<!DOCTYPE svg PUBLIC "-//W3C//DTD SVG 1.1//EN" "http://www.w3.org/Graphics/SVG/1.1/DTD/svg11.dtd">
<!-- Creator: CorelDRAW -->
<svg xmlns="http://www.w3.org/2000/svg" xml:space="preserve" width="99.4086mm" height="99.4086mm" version="1.1" style="shape-rendering:geometricPrecision; text-rendering:geometricPrecision; image-rendering:optimizeQuality; fill-rule:evenodd; clip-rule:evenodd"
viewBox="0 0 1912.87 1912.87"
 xmlns:xlink="http://www.w3.org/1999/xlink"
 xmlns:xodm="http://www.corel.com/coreldraw/odm/2003">
 <defs>
  <style type="text/css">
   <![CDATA[
    .fil2 {fill:none}
    .fil1 {fill:#4D4D4D}
    .fil3 {fill:#6C6C6C;fill-rule:nonzero}
    .fil0 {fill:url(#id0)}
   ]]>
  </style>
  <radialGradient id="id0" gradientUnits="userSpaceOnUse" gradientTransform="matrix(-1.27407E+000 1.13733 -1.1152E+000 -1.24929E+000 3242 1047)" cx="959.53" cy="950.71" r="479.95" fx="959.53" fy="950.71">
   <stop offset="0" style="stop-opacity:1; stop-color:#E98A1D"/>
   <stop offset="1" style="stop-opacity:1; stop-color:#FB941E"/>
  </radialGradient>
 </defs>
 <g id="Layer_x0020_1">
  <metadata id="CorelCorpID_0Corel-Layer"/>
  <path class="fil0" d="M330.78 613.58l348.27 0c190.9,0 347.08,156.19 347.08,347.08 0,190.9 -156.19,347.08 -347.08,347.08l-134.86 0 -140.36 0 0 -502.41 140.36 0 0 367.04 138.49 0c116.44,0 211.71,-95.27 211.71,-211.72l0 -0c0,-116.44 -95.27,-211.72 -211.71,-211.72l-408.91 0c-19.94,65.66 -30.66,135.32 -30.66,207.49 0,393.96 319.37,713.34 713.34,713.34 184.65,0 352.91,-70.15 479.58,-185.27l72.03 78.23c-145.61,132.57 -339.17,213.38 -551.61,213.38 -452.69,0 -819.68,-366.98 -819.68,-819.68 0,-122.41 26.87,-238.54 74.99,-342.85l17.1 0 101.93 0z"/>
  <path class="fil1" d="M956.43 136.76c452.69,0 819.68,366.98 819.68,819.68 0,212.95 -81.24,406.91 -214.38,552.65l0 3.47 -413.64 -452.94 -1.15 0 -103.19 -114.25 158.76 0 41.45 0c57.99,0 105.43,-47.44 105.43,-105.43l0 0c0,-57.99 -47.44,-105.43 -105.43,-105.43l-210.61 0 -103.18 -114.24 324.98 0c120.82,0 219.67,98.85 219.67,219.68l0 0c0,104.7 -74.23,192.88 -172.66,214.56l257.8 282.29c69.54,-110.09 109.8,-240.51 109.8,-380.35 0,-393.96 -319.37,-713.34 -713.34,-713.34 -238.36,0 -449.38,116.93 -578.92,296.54l-126.96 0c142.69,-241.14 405.38,-402.88 705.88,-402.88z"/>
  <circle class="fil2" transform="matrix(0.98446 -6.18739E-001 0.618739 0.98446 956.434 956.434)" r="822.45"/>
  <path class="fil3" d="M348.18 1625.58l33.74 -37.48 13.98 12.58c2.96,2.67 5.53,5.51 7.71,8.52 2.18,3.01 3.65,6.16 4.43,9.45 0.78,3.29 0.72,6.67 -0.17,10.15 -0.89,3.48 -2.96,7.02 -6.2,10.62 -2.95,3.28 -6.1,5.59 -9.45,6.93 -3.34,1.34 -6.69,1.88 -10.05,1.64 -3.36,-0.24 -6.66,-1.16 -9.9,-2.73 -3.24,-1.58 -6.26,-3.62 -9.05,-6.13l-15.04 -13.54zm36.24 -15.88l-14.39 15.99 2.33 2.1c2.97,2.67 5.82,4.08 8.57,4.22 2.75,0.14 5.44,-1.25 8.08,-4.18 2.19,-2.43 3.11,-5.05 2.74,-7.84 -0.36,-2.79 -1.87,-5.37 -4.52,-7.76l-2.81 -2.53zm64.55 33.49l13.76 10.15 -29.93 40.59 -13.76 -10.15 29.94 -40.59zm42.42 90.29c-3.44,-2.03 -6.31,-4.43 -8.61,-7.22 -2.3,-2.79 -3.94,-5.81 -4.92,-9.06 -0.98,-3.25 -1.25,-6.65 -0.82,-10.19 0.43,-3.55 1.68,-7.06 3.73,-10.54 2.05,-3.48 4.52,-6.27 7.41,-8.37 2.89,-2.1 5.99,-3.53 9.3,-4.28 3.31,-0.75 6.72,-0.83 10.22,-0.23 3.5,0.6 6.89,1.87 10.17,3.79 3.4,2 6.29,4.45 8.69,7.35 2.4,2.9 3.99,5.88 4.78,8.93l-14.57 5.23c-0.27,-1.6 -0.84,-3.07 -1.69,-4.43 -0.85,-1.35 -2.18,-2.56 -3.98,-3.62 -1.19,-0.7 -2.48,-1.14 -3.88,-1.34 -1.4,-0.19 -2.79,-0.1 -4.17,0.27 -1.38,0.37 -2.69,1.02 -3.95,1.93 -1.25,0.91 -2.33,2.13 -3.22,3.64 -1.78,3.03 -2.45,5.96 -1.99,8.79 0.46,2.83 2.42,5.27 5.9,7.32 0.61,0.36 1.28,0.69 1.99,0.97 0.72,0.28 1.32,0.43 1.81,0.44l1.95 -3.31 -7 -4.12 6.76 -11.48 19.95 11.75 -13.99 23.76c-1.39,0.01 -2.89,-0.12 -4.52,-0.39 -1.63,-0.27 -3.3,-0.66 -5.01,-1.18 -1.71,-0.51 -3.45,-1.14 -5.22,-1.87 -1.77,-0.74 -3.47,-1.59 -5.11,-2.55zm78.05 -15.5l15.5 7.22 -21.31 45.71 -15.5 -7.22 21.31 -45.71zm56.97 80.2l-15.68 -6.44 13.72 -33.41 -11.47 -4.71 5.44 -13.25 38.62 15.86 -5.44 13.25 -11.47 -4.71 -13.72 33.41zm75.41 -27.01l17.23 5.28 4.02 53.98 -17.64 -5.41 -0.35 -7.86 -15.32 -4.7 -4.55 6.35 -17.16 -5.26 33.78 -42.4zm3.22 19.39l-7.6 10.71 7.83 2.4 -0.23 -13.11zm64.85 -0.93l16.76 3.36 -7.06 35.2 16.42 3.29 -2.86 14.25 -33.18 -6.65 9.91 -49.45zm135.6 18.91l21.69 1.21c2.47,0.14 4.91,0.52 7.32,1.16 2.41,0.63 4.55,1.63 6.4,2.99 1.85,1.36 3.31,3.13 4.38,5.31 1.07,2.17 1.51,4.85 1.34,8.03 -0.17,3.08 -1.08,5.76 -2.73,8.02 -1.65,2.26 -3.93,3.96 -6.85,5.08l11.66 21.13 -19.49 -1.09 -8.67 -18.53 -0.5 -0.03 -1 18 -16.36 -0.91 2.8 -50.36zm15.03 22.17l3.34 0.19c0.57,0.03 1.2,0.02 1.89,-0.04 0.69,-0.06 1.35,-0.22 1.95,-0.5 0.61,-0.27 1.13,-0.67 1.57,-1.19 0.43,-0.52 0.67,-1.24 0.72,-2.14 0.05,-0.9 -0.08,-1.62 -0.38,-2.16 -0.3,-0.54 -0.71,-0.95 -1.21,-1.24 -0.51,-0.29 -1.07,-0.49 -1.68,-0.59 -0.61,-0.11 -1.18,-0.17 -1.7,-0.2l-4.05 -0.23 -0.45 8.11zm66.73 -21.09l34.67 -1.28 0.52 14.1 -18.72 0.69 0.16 4.34 17.58 -0.65 0.48 13.17 -17.58 0.65 0.17 4.7 19.93 -0.74 0.52 14.1 -35.88 1.32 -1.86 -50.4zm85.74 -7.39l17.85 -2.52 26.51 47.19 -18.27 2.58 -3.65 -6.97 -15.87 2.24 -1.43 7.68 -17.77 2.51 12.63 -52.72zm11.13 16.2l-2.35 12.92 8.11 -1.14 -5.76 -11.78zm86.69 18.01c-1.99,0.48 -3.98,0.77 -5.98,0.88 -2,0.11 -3.97,0.05 -5.91,-0.19 -1.94,-0.24 -3.8,-0.63 -5.59,-1.15 -1.79,-0.53 -3.43,-1.19 -4.95,-2l7.42 -13.35c1.45,0.97 3.26,1.71 5.41,2.22 2.15,0.51 4.24,0.52 6.27,0.03 0.92,-0.22 1.73,-0.58 2.41,-1.09 0.69,-0.5 0.92,-1.2 0.71,-2.07 -0.11,-0.46 -0.33,-0.82 -0.66,-1.09 -0.33,-0.26 -0.86,-0.49 -1.59,-0.68 -0.73,-0.19 -1.71,-0.36 -2.94,-0.5 -1.23,-0.14 -2.77,-0.29 -4.61,-0.43 -1.8,-0.16 -3.55,-0.43 -5.26,-0.83 -1.7,-0.4 -3.28,-1.01 -4.72,-1.83 -1.44,-0.83 -2.7,-1.93 -3.76,-3.31 -1.06,-1.38 -1.85,-3.16 -2.38,-5.33 -0.73,-3.05 -0.73,-5.78 0.01,-8.2 0.74,-2.42 1.92,-4.55 3.56,-6.38 1.64,-1.83 3.61,-3.34 5.91,-4.53 2.3,-1.19 4.65,-2.07 7.06,-2.65 3.23,-0.78 6.67,-0.94 10.32,-0.5 3.64,0.44 7.02,1.54 10.13,3.29l-7.75 12.92c-1.44,-1.12 -3.05,-1.85 -4.84,-2.17 -1.79,-0.33 -3.33,-0.34 -4.62,-0.03 -1.2,0.29 -2.13,0.69 -2.79,1.22 -0.66,0.52 -0.89,1.18 -0.7,1.96 0.18,0.74 0.69,1.2 1.54,1.39 0.85,0.19 2.2,0.35 4.04,0.5 1.89,0.13 3.89,0.34 6.01,0.61 2.11,0.27 4.14,0.8 6.06,1.59 1.92,0.79 3.62,1.9 5.09,3.36 1.47,1.45 2.51,3.45 3.12,5.99 0.71,2.96 0.74,5.67 0.08,8.15 -0.65,2.47 -1.76,4.67 -3.33,6.59 -1.57,1.91 -3.47,3.52 -5.7,4.81 -2.23,1.29 -4.59,2.23 -7.09,2.83zm49.94 -41.68c-1.31,-3.82 -1.82,-7.5 -1.53,-11.04 0.29,-3.54 1.25,-6.79 2.86,-9.76 1.62,-2.97 3.84,-5.59 6.68,-7.86 2.83,-2.28 6.14,-4.07 9.91,-5.36 3.77,-1.3 7.48,-1.91 11.11,-1.85 3.63,0.06 7.01,0.76 10.13,2.09 3.12,1.34 5.88,3.32 8.29,5.93 2.4,2.62 4.26,5.83 5.57,9.65 1.31,3.82 1.83,7.53 1.56,11.14 -0.27,3.61 -1.21,6.93 -2.83,9.97 -1.62,3.04 -3.83,5.72 -6.65,8.05 -2.82,2.32 -6.11,4.13 -9.88,5.43 -3.78,1.3 -7.49,1.89 -11.14,1.79 -3.65,-0.1 -7.04,-0.86 -10.16,-2.27 -3.12,-1.42 -5.89,-3.46 -8.32,-6.14 -2.43,-2.68 -4.29,-5.93 -5.61,-9.75zm17.05 -5.85c0.54,1.57 1.27,2.93 2.19,4.07 0.92,1.14 1.96,2.04 3.11,2.7 1.15,0.66 2.41,1.04 3.75,1.16 1.35,0.12 2.69,-0.06 4.04,-0.52 1.35,-0.46 2.51,-1.15 3.47,-2.06 0.97,-0.91 1.72,-1.98 2.25,-3.22 0.53,-1.24 0.8,-2.58 0.83,-4.05 0.02,-1.46 -0.23,-2.98 -0.78,-4.55 -0.52,-1.53 -1.24,-2.85 -2.15,-3.97 -0.91,-1.12 -1.95,-1.97 -3.1,-2.55 -1.15,-0.58 -2.39,-0.93 -3.7,-1.03 -1.31,-0.1 -2.65,0.08 -3.99,0.54 -1.35,0.46 -2.52,1.14 -3.52,2.04 -1,0.89 -1.76,1.92 -2.29,3.08 -0.53,1.16 -0.81,2.46 -0.84,3.9 -0.03,1.44 0.22,2.93 0.74,4.45zm62.33 -50.73l15.31 -7.12 23.83 17.12 0.26 -0.12 -11.43 -22.89 14.6 -6.79 21.26 45.74 -15.7 7.3 -22.81 -15.95 -0.26 0.12 10.8 21.53 -14.6 6.79 -21.26 -45.73zm77.48 -38.78l14.66 -8.79 25.93 43.26 -14.66 8.79 -25.93 -43.26zm50.69 -31.55l14.05 -9.36 26.15 13.31 0.24 -0.16 -14.77 -20.89 13.4 -8.92 27.96 41.98 -14.41 9.59 -24.97 -12.3 -0.24 0.16 13.94 19.65 -13.4 8.92 -27.95 -41.98zm122.58 -27.83c-3.09,2.52 -6.34,4.38 -9.75,5.57 -3.41,1.19 -6.81,1.69 -10.2,1.48 -3.39,-0.21 -6.67,-1.13 -9.84,-2.77 -3.18,-1.64 -6.04,-4.02 -8.59,-7.15 -2.55,-3.13 -4.32,-6.41 -5.29,-9.85 -0.97,-3.44 -1.23,-6.84 -0.79,-10.21 0.44,-3.36 1.55,-6.58 3.33,-9.66 1.78,-3.08 4.14,-5.82 7.08,-8.22 3.05,-2.49 6.36,-4.36 9.91,-5.61 3.55,-1.24 6.9,-1.71 10.04,-1.39l-0.14 15.48c-1.59,-0.3 -3.17,-0.28 -4.74,0.05 -1.57,0.33 -3.16,1.16 -4.78,2.48 -1.07,0.87 -1.93,1.93 -2.6,3.18 -0.67,1.25 -1.06,2.58 -1.19,4 -0.13,1.42 0.02,2.88 0.44,4.38 0.42,1.49 1.19,2.92 2.3,4.28 2.22,2.72 4.74,4.36 7.55,4.91 2.81,0.55 5.78,-0.45 8.91,-3 0.55,-0.45 1.08,-0.96 1.6,-1.53 0.51,-0.57 0.86,-1.09 1.04,-1.54l-2.43 -2.98 -6.29 5.14 -8.43 -10.32 17.93 -14.64 17.44 21.35c-0.47,1.3 -1.11,2.67 -1.93,4.11 -0.82,1.44 -1.77,2.87 -2.84,4.3 -1.07,1.43 -2.26,2.84 -3.57,4.25 -1.31,1.4 -2.69,2.71 -4.17,3.91z"/>
 </g>
</svg>
